<?xml version="1.0" encoding="utf-8"?>
<!-- Generator: Adobe Illustrator 22.0.1, SVG Export Plug-In . SVG Version: 6.00 Build 0)  -->
<svg version="1.1" id="Layer_1" xmlns="http://www.w3.org/2000/svg" xmlns:xlink="http://www.w3.org/1999/xlink" x="0px" y="0px"
	 viewBox="0 0 40 38" style="enable-background:new 0 0 40 38;" xml:space="preserve">
<style type="text/css">
	.st0{fill:#FFFFFF;}
</style>
<g>
	<path class="st0" d="M40,16.7c-0.9,2.7-1.8,5.4-2.7,8.1c-0.1,0.5-0.6,0.8-1.1,0.7c-6.7,0-13.3,0-20,0c0.3,1.1,0.6,2.1,0.9,3.2
		c7,0,13.9,0,20.9,0c0.3,0,0.5,0.5,0.5,1c0,0.5-0.2,1-0.5,1c-7.2,0-14.5,0-21.7,0c-0.5,0-0.9-0.3-1-0.8c-2.4-8.7-4.7-17.5-7-26.2
		c-2.3,0-4.7,0-7,0c-0.6,0-1.1-0.6-1-1.2c0.1-0.5,0.5-0.9,1-0.9c2.6,0,5.1,0,7.7,0c0.5,0,1,0.3,1.1,0.8c1.9,7,3.8,14,5.7,21.1
		c6.6,0,13.2,0,19.8,0c0.8-2.4,1.7-4.9,2.5-7.3"/>
	<g>
		<path class="st0" d="M17.7,31.1c1.7-0.5,3.6,0.6,4.1,2.2c0.4,1,0.3,2.3-0.4,3.2c-0.8,1.2-2.3,1.8-3.7,1.5
			c-1.5-0.3-2.7-1.7-2.7-3.2C15,33.1,16.1,31.5,17.7,31.1z M18.1,32.9c-0.8,0.2-1.4,1.1-1.2,1.9c0.1,0.8,0.9,1.5,1.8,1.4
			c1,0,1.8-1.2,1.5-2.1C20,33.2,19,32.6,18.1,32.9z"/>
	</g>
	<g>
		<path class="st0" d="M33.6,31.1c1.6-0.5,3.5,0.5,4.1,2.1c0.4,1,0.3,2.3-0.3,3.2c-0.7,1.2-2.3,1.8-3.6,1.5
			c-1.6-0.3-2.8-1.8-2.8-3.4C30.9,33,32,31.5,33.6,31.1z M33.9,32.9c-0.6,0.2-1.1,0.7-1.2,1.4c-0.2,1,0.7,1.9,1.6,1.9
			c1,0.1,1.9-1,1.7-2C35.9,33.2,34.9,32.6,33.9,32.9z"/>
	</g>
</g>
</svg>
